<svg xmlns="http://www.w3.org/2000/svg" width="14" height="10.783" viewBox="0 0 14 10.783">
  <g id="_133-right-arrow" data-name="133-right-arrow" transform="translate(0 0)">
    <g id="Group_740" data-name="Group 740" transform="translate(0 4.826)">
      <g id="Group_739" data-name="Group 739">
        <path id="Path_382" data-name="Path 382" d="M13.434,235.318H.566a.566.566,0,0,0,0,1.131H13.434a.566.566,0,0,0,0-1.131Z" transform="translate(0 -235.318)" fill="#868eae"/>
      </g>
    </g>
    <g id="Group_742" data-name="Group 742" transform="translate(8.043 0)">
      <g id="Group_741" data-name="Group 741">
        <path id="Path_383" data-name="Path 383" d="M299.939,63.821,295.113,59a.566.566,0,1,0-.8.8l4.426,4.426-4.426,4.426a.566.566,0,1,0,.8.8l4.826-4.826A.566.566,0,0,0,299.939,63.821Z" transform="translate(-294.148 -58.83)" fill="#868eae"/>
      </g>
    </g>
  </g>
</svg>
