<svg xmlns="http://www.w3.org/2000/svg" width="14.133" height="11.306" viewBox="0 0 14.133 11.306">
  <path id="image" d="M14.013,4H4.12A2.12,2.12,0,0,0,2,6.12v7.066a2.12,2.12,0,0,0,2.12,2.12h9.893a2.12,2.12,0,0,0,2.12-2.12V6.12A2.12,2.12,0,0,0,14.013,4ZM4.12,13.893a.707.707,0,0,1-.707-.707v-1.71L5.745,9.151a.707.707,0,0,1,.989,0l4.742,4.742Zm10.6-.707a.707.707,0,0,1-.707.707h-.544l-2.692-2.706.622-.622a.707.707,0,0,1,.989,0L14.72,12.89Zm0-2.29L13.391,9.575a2.162,2.162,0,0,0-3,0l-.622.622L7.738,8.162a2.162,2.162,0,0,0-3,0L3.413,9.484V6.12a.707.707,0,0,1,.707-.707h9.893a.707.707,0,0,1,.707.707Z" transform="translate(-2 -4)" fill="#fff"/>
</svg>
